<?xml version="1.0" encoding="utf-8"?>
<!-- Generator: Adobe Illustrator 19.2.1, SVG Export Plug-In . SVG Version: 6.00 Build 0)  -->
<svg version="1.1" id="Layer_1" xmlns="http://www.w3.org/2000/svg" xmlns:xlink="http://www.w3.org/1999/xlink" x="0px" y="0px"
	 viewBox="0 0 740 157" style="enable-background:new 0 0 740 157;" xml:space="preserve">
<style type="text/css">
	.st0{fill:#FECF08;}
</style>
<g id="XMLID_81_">
	<g id="XMLID_131_">
		<path id="XMLID_170_" class="st0" d="M134.8,127.1l23.4,0l0-19.6l9.7,0l0,48.6l-9.7,0v-20l-23.4,0v20h-9.7l0-48.6l9.7,0
			L134.8,127.1z"/>
		<path id="XMLID_168_" class="st0" d="M215.2,156.1l-36.3,0l0-48.6l36,0l0,8.9l-26.3,0v10.8l25.1,0v8.9l-25.1,0l0,11.2l26.6,0
			V156.1z"/>
		<path id="XMLID_165_" class="st0" d="M270,156.1l-10.3,0l-4.2-11.3l-20.7,0l-4.2,11.3l-10.1,0l18.9-48.6l11.8,0L270,156.1z
			 M238.1,135.9l14.1,0l-7-18.8L238.1,135.9z"/>
		<path id="XMLID_163_" class="st0" d="M311.7,156.1l-35.4,0l0-48.6l9.7,0l0,39.5l25.7,0V156.1z"/>
		<path id="XMLID_161_" class="st0" d="M349.5,116.6l-15.1,0l0,39.5h-9.7l0-39.5l-15.1,0v-9.1l39.8,0L349.5,116.6z"/>
		<path id="XMLID_159_" class="st0" d="M365.9,127.1l23.4,0v-19.6l9.7,0l0,48.6l-9.7,0l0-20l-23.4,0v20l-9.7,0l0-48.6l9.7,0V127.1z"
			/>
		<path id="XMLID_157_" class="st0" d="M454,117.5l-8.3,5.1c-2.7-4.2-7.1-6.7-12.6-6.7c-8.8,0-15.3,6.5-15.3,15.9
			c0,9.8,6.8,15.9,15.3,15.9c5.4,0,9.8-2.4,12.7-6.7l7.9,5.7c-4.3,6.3-11.6,10.3-20.5,10.3c-15,0-25.5-10.6-25.5-25.2
			c0-14.6,10.6-25.2,25.5-25.2C442.1,106.6,450,110.7,454,117.5z"/>
		<path id="XMLID_154_" class="st0" d="M506.8,156.1l-10.3,0l-4.2-11.3l-20.7,0l-4.2,11.3l-10.1,0l18.9-48.6l11.8,0L506.8,156.1z
			 M474.8,135.9l14.1,0l-7-18.8L474.8,135.9z"/>
		<path id="XMLID_151_" class="st0" d="M533.6,107.5c11.6,0,17.8,5.5,17.8,14.8c0,8-5.6,13.4-14.9,14.3l15,19.5l-11.7,0l-14.2-19.3
			h-2.8v19.3l-9.7,0v-48.6L533.6,107.5z M522.7,116.4v11.9l10.7,0c5.3,0,8-1.9,8-6c0-4-2.9-5.9-8-5.9L522.7,116.4z"/>
		<path id="XMLID_149_" class="st0" d="M596.6,156.1l-36.3,0v-48.6l36,0v8.9l-26.3,0v10.8l25.1,0v8.9l-25.1,0v11.2l26.6,0
			L596.6,156.1z"/>
		<path id="XMLID_147_" class="st0" d="M160.4,3.1l23.5,0l0,61.5c0,5.1-0.8,9.3-2.4,12.5c-1.6,3.3-4.2,6.4-7.9,9.1
			c-5,3.6-11,5.4-18.1,5.4c-8,0-14.8-2-20.2-6c-6.9-5.1-10.4-13.2-10.4-24.3l0-58.2l23.5,0l0,56.1c0,3.8,0.5,6.5,1.4,8.1
			c0.9,1.6,2.5,2.4,4.6,2.4c2.3,0,3.8-0.7,4.7-2.2c0.9-1.5,1.3-4.3,1.3-8.2L160.4,3.1z"/>
		<path id="XMLID_145_" class="st0" d="M196.1,90.1l0-86.9l22.4,0l11.8,30.5c0.6,1.8,1.4,3.9,2.2,6.2c0.8,2.3,1.7,5,2.7,8.1l2.4,7.7
			c-0.9-7.5-1.5-14-2-19.4s-0.7-9.9-0.7-13.5V3.1l22.4,0l0,86.9l-22.4,0l-11.8-32c-1.2-3.4-2.4-6.6-3.4-9.6c-1-3-1.9-5.8-2.6-8.5
			c0.5,6.1,0.8,11.5,1.1,16c0.2,4.5,0.3,8.5,0.3,11.9l0,22.2L196.1,90.1z"/>
		<path id="XMLID_141_" class="st0" d="M269.5,90.1l0-86.9l27.3,0c10.2,0,17.8,2.3,22.7,6.8c5,4.6,7.5,10.6,7.5,17.9
			c0,10.9-5.4,16.8-16.2,17.7c6.2,0.9,10.7,2.9,13.5,6.1c2.9,3.2,4.3,7.7,4.3,13.6c0,7.5-2.4,13.5-7.3,18c-4.8,4.6-11.1,6.9-19,6.9
			L269.5,90.1z M292.9,36.9l1.6,0c2.8,0,5-0.7,6.7-2c1.6-1.3,2.5-3.2,2.5-5.5c0-5-2.8-7.5-8.3-7.5c-0.3,0-0.6,0-1,0
			c-0.4,0-0.9,0-1.4,0.1V36.9z M292.9,71.2c0.5,0,0.8,0.1,1.2,0.1c0.3,0,0.6,0,0.8,0c2.9,0,5.3-0.8,7-2.3c1.7-1.5,2.6-3.6,2.6-6.2
			c0-2.6-0.9-4.6-2.6-6.1c-1.7-1.5-4.1-2.2-7.2-2.2l-1.9,0V71.2z"/>
		<path id="XMLID_138_" class="st0" d="M400.4,90.1l-25.4,0l-11.6-31c-0.1-0.5-0.3-1.2-0.6-2.1c-0.3-0.9-0.6-1.9-1-3.1l0.2,5.7
			l0,30.4l-23.4,0l0-86.9l24,0c10.6,0,18.5,2.1,23.8,6.3c6.7,5.3,10,12.9,10,22.8c0,10.5-4.5,17.8-13.5,21.8L400.4,90.1z
			 M362.1,43.4h1.6c2.7,0,5-1,6.8-3.1c1.8-2.1,2.7-4.7,2.7-7.9c0-6.5-3.4-9.7-10.2-9.7l-0.8,0V43.4z"/>
		<path id="XMLID_136_" class="st0" d="M408.2,90.1l0-86.9l43.6,0l0,20.4l-20.2,0v12.7l18.1,0l0,19.7l-18.1,0v13.3l20.2,0l0,20.9
			L408.2,90.1z"/>
		<path id="XMLID_133_" class="st0" d="M524.5,90.1l-24.3,0l-1.7-11l-15.8,0l-1.9,11l-24.3,0l20.9-86.9l28.7,0L524.5,90.1z
			 M495.7,60.4l-1.5-10.1c0,0-0.1-0.5-0.2-1.5c-0.1-0.8-0.5-4.1-1.2-9.8c-0.1-0.6-0.2-1.5-0.3-2.6c-0.1-1.1-0.3-2.5-0.5-4.2
			l-0.7-8.2c-0.1,0.8-0.2,1.7-0.3,2.6c-0.1,1-0.3,2-0.4,3.2c-0.3,2.3-0.4,3.9-0.6,4.8c-0.1,0.9-0.2,1.4-0.2,1.6l-1.6,10.5l-2.4,13.6
			L495.7,60.4z"/>
		<polygon id="XMLID_132_" class="st0" points="572.8,90.1 598,90.1 577,45.2 595.7,3.4 571,3.4 558.8,36.4 553.7,36.4 554.2,3.4 
			530.8,3.4 530.8,90.1 554.2,90.1 553.7,56.2 559.9,56.2 		"/>
	</g>
	<path id="XMLID_82_" class="st0" d="M602.9,113.2l0-4.6h-1.8v-0.9l4.7,0v0.9l-1.8,0v4.6H602.9z M612,113.2V109l-1.5,3.6h-1.1
		l-1.5-3.6v4.1l-1,0v-5.5h1.4l1.7,3.8l1.7-3.8h1.4v5.5L612,113.2z"/>
</g>
</svg>
