<?xml version="1.0" encoding="utf-8"?>
<!-- Generator: Adobe Illustrator 16.0.5, SVG Export Plug-In . SVG Version: 6.00 Build 0)  -->
<!DOCTYPE svg PUBLIC "-//W3C//DTD SVG 1.1//EN" "http://www.w3.org/Graphics/SVG/1.1/DTD/svg11.dtd">
<svg version="1.1" id="Layer_1" xmlns="http://www.w3.org/2000/svg" xmlns:xlink="http://www.w3.org/1999/xlink" x="0px" y="0px"
	 width="75px" height="75px" viewBox="0 0 75 75" style="enable-background:new 0 0 75 75;" xml:space="preserve">
<g>
	<path style="fill:#1B5630;" d="M37.5,75C16.8,75,0,58.2,0,37.5S16.8,0,37.5,0S75,16.8,75,37.5S58.2,75,37.5,75z"/>
</g>
<g id="Play">
	<g>
		<path style="fill:#FFFFFF;" d="M37.5,65.6C22,65.6,9.4,53,9.4,37.5S22,9.4,37.5,9.4S65.6,22,65.6,37.5S53,65.6,37.5,65.6z
			 M37.5,12.8c-13.6,0-24.7,11.1-24.7,24.7c0,13.6,11.1,24.7,24.7,24.7c13.6,0,24.7-11.1,24.7-24.7C62.2,23.9,51.1,12.8,37.5,12.8z"
			/>
	</g>
	<g>
		<polygon style="fill:#FFFFFF;" points="29.6,25.1 49.9,37.5 29.6,49.8 		"/>
	</g>
</g>
</svg>
